<?xml version="1.0" standalone="no"?><!-- Generator: Gravit.io --><svg xmlns="http://www.w3.org/2000/svg" xmlns:xlink="http://www.w3.org/1999/xlink" style="isolation:isolate" viewBox="0 0 1000 1000" width="1000" height="1000"><defs><clipPath id="_clipPath_pQd9VECW6uOFjTJGP9meomeZ49AeMzBO"><rect width="1000" height="1000"/></clipPath></defs><g clip-path="url(#_clipPath_pQd9VECW6uOFjTJGP9meomeZ49AeMzBO)"><rect width="1000" height="1000" style="fill:rgb(0,0,0)" fill-opacity="0"/><g><path d=" M 149.835 674.568 L 150.024 711.382 L 149.269 711.76 C 150.146 711.234 149.864 709.913 149.646 709.117 L 149.646 709.117 L 149.646 701.943 L 149.835 674.568 Z " fill="rgb(0,0,0)"/><path d=" M 150.213 674.568 L 185.894 674.757 L 186.083 711.949 C 216.882 716.024 247.578 725.95 271.982 745.742 L 271.982 745.742 L 249.138 778.78 Q 220.087 753.837 168.714 751.217 Q 127.004 755.005 104.715 778.213 Q 85.341 796.787 85.458 834.85 Q 90.211 865.59 108.302 882.991 Q 132.289 906.202 180.419 905.268 Q 223.35 899.869 251.026 879.216 L 271.982 911.876 C 247.355 931.313 216.668 941.07 185.894 945.103 L 185.894 945.103 L 185.705 983.049 L 150.024 982.861 L 149.835 944.914 Q 96.078 940.713 67.335 911.498 Q 46.706 890.971 37.317 859.204 Q 32.314 845.328 32.975 825.788 Q 36.745 770.656 69.789 744.798 Q 98.939 717.312 150.024 711.76 L 150.213 674.568 Z " fill="rgb(63,11,137)"/><path d=" M 186.083 674.568 L 186.272 711.76 L 185.516 712.137 C 186.393 711.611 186.111 710.291 185.894 709.494 L 185.894 709.494 L 185.894 702.32 L 186.083 674.568 Z  M 150.59 675.324 L 150.779 711.005 L 150.402 711.005 L 150.59 675.324 Z " fill-rule="evenodd" fill="rgb(0,0,0)"/><path d=" M 152.101 676.834 L 184.006 677.023 L 184.195 713.836 C 214.598 717.545 245.019 726.924 269.339 746.119 L 269.339 746.119 L 248.761 775.759 Q 235.354 766.133 218.932 759.523 Q 198.417 748.888 166.826 749.329 Q 124.442 753.764 102.072 778.213 Q 84.247 796.258 83.193 831.074 Q 87.102 864.923 106.036 883.746 Q 129.763 906.462 175.133 907.534 Q 221.595 903.401 250.649 881.859 L 269.339 911.498 C 244.787 930.318 214.385 939.536 184.006 943.215 L 184.006 943.215 L 183.817 981.161 L 151.912 980.973 L 151.723 943.026 Q 93.949 939.067 65.069 906.212 Q 46.52 885.871 38.261 855.239 Q 33.636 840.797 35.24 820.125 Q 40.382 772.028 69.411 747.818 Q 98.77 718.841 151.912 713.648 L 152.101 676.834 Z " fill="rgb(247,207,0)"/><path d=" M 66.013 748.196 L 63.748 750.839 L 66.013 748.196 Z  M 168.714 751.217 L 176.455 751.405 L 168.714 751.594 L 168.714 751.217 Z  M 106.791 776.137 L 104.904 778.402 L 106.791 776.137 Z " fill-rule="evenodd" fill="rgb(0,0,0)"/><path d=" M 770.951 816.915 C 770.578 818.347 770.133 820.571 771.517 821.635 L 771.517 821.635 L 770.762 821.257 L 770.951 816.915 Z " fill="rgb(0,0,0)"/><path d=" M 771.328 816.915 L 810.407 817.104 L 771.328 817.293 L 771.328 816.915 Z " fill="rgb(0,0,0)"/><path d=" M 810.596 816.915 L 810.785 821.257 L 810.03 821.635 C 811.414 820.571 810.968 818.347 810.596 816.915 L 810.596 816.915 Z  M 829.853 816.915 C 829.481 818.347 829.035 820.571 830.419 821.635 L 830.419 821.635 L 829.664 821.257 L 829.853 816.915 Z " fill-rule="evenodd" fill="rgb(0,0,0)"/><path d=" M 830.23 816.915 L 872.708 817.104 L 830.23 817.293 L 830.23 816.915 Z " fill="rgb(0,0,0)"/><path d=" M 872.896 816.915 L 873.085 821.257 L 872.141 821.824 L 872.141 821.446 L 872.708 821.257 L 872.896 816.915 Z " fill="rgb(0,0,0)"/><path d=" M 930.288 816.915 L 967.102 817.104 L 930.099 817.482 L 929.911 821.446 L 929.722 817.482 L 930.288 816.915 Z " fill="rgb(0,0,0)"/><path d=" M 771.328 817.293 L 810.407 817.482 L 810.219 821.446 C 808.293 821.642 806.269 822.455 805.282 824.226 C 803.994 826.538 804.248 829.323 804.744 831.83 L 804.744 831.83 L 804.744 851.464 L 804.744 930.377 C 805.024 931.669 805.693 932.857 806.82 933.587 L 806.82 933.587 L 810.407 934.908 L 810.219 938.873 L 771.139 938.684 L 771.328 934.719 C 773.2 934.495 775.481 933.678 776.425 931.888 C 777.571 929.715 777.191 926.639 776.803 924.336 L 776.803 924.336 L 776.803 904.702 L 776.803 825.411 L 774.726 822.579 L 771.139 821.257 L 771.328 817.293 Z  M 830.23 817.293 L 872.708 817.482 L 872.519 821.446 Q 870.017 821.777 868.932 823.523 Q 869.476 830.53 874.784 832.773 L 889.699 848.443 L 935.197 895.829 L 935.763 895.64 L 935.763 843.912 L 935.763 831.074 C 936.224 828.405 936.426 824.85 934.064 822.956 L 934.064 822.956 L 930.099 821.257 L 930.288 817.293 L 967.102 817.482 L 966.913 821.446 C 965.072 821.667 963.517 822.356 962.236 823.707 C 960.377 825.669 960.922 829.111 961.438 831.452 L 961.438 831.452 L 961.438 851.464 L 961.438 931.132 L 963.515 933.587 L 967.102 934.908 L 966.913 938.873 L 927.456 938.684 L 927.645 934.719 C 928.895 934.586 930.127 934.094 930.855 933.02 L 930.855 933.02 L 931.232 931.51 C 929.395 928.093 926.828 925.1 923.681 922.826 L 923.681 922.826 L 908.766 907.156 L 874.218 871.475 L 861.947 858.071 C 860.44 859.046 860.989 861.402 861.38 862.791 L 861.38 862.791 L 861.38 876.384 L 861.38 930 C 861.513 931.249 862.006 932.482 863.079 933.209 L 863.079 933.209 L 867.044 934.908 L 866.855 938.873 L 830.041 938.684 L 830.23 934.719 C 832.102 934.495 834.384 933.678 835.327 931.888 C 836.473 929.715 836.093 926.639 835.705 924.336 L 835.705 924.336 L 835.705 904.702 L 835.705 825.411 L 833.628 822.579 L 830.041 821.257 L 830.23 817.293 Z " fill-rule="evenodd" fill="rgb(63,11,137)"/><path d=" M 773.216 819.181 L 808.519 819.369 L 808.331 819.936 C 802.605 821.035 802.081 826.575 802.856 831.452 L 802.856 831.452 L 802.856 851.464 L 802.856 931.132 C 803.34 932.947 804.41 934.541 806.065 935.475 L 806.065 935.475 L 808.519 936.419 L 808.331 936.985 L 773.027 936.796 L 773.216 936.23 C 778.827 935.152 779.557 929.929 778.691 925.091 L 778.691 925.091 L 778.691 905.08 L 778.691 824.656 L 776.614 821.446 L 773.027 819.747 L 773.216 819.181 Z  M 832.118 819.181 L 870.82 819.369 L 870.631 819.936 L 867.799 821.635 C 864.342 825.585 869.836 831.173 872.708 833.34 L 872.708 833.34 L 884.979 846.366 L 937.462 901.115 L 937.651 825.411 C 937.232 823.677 936.313 822.086 934.819 821.069 L 934.819 821.069 L 931.987 819.747 L 932.176 819.181 L 964.837 819.369 L 964.27 820.313 C 958.984 821.062 958.842 826.866 959.551 831.074 L 959.551 831.074 L 959.551 851.086 L 959.551 931.51 C 959.831 932.801 960.499 933.99 961.627 934.719 L 961.627 934.719 L 964.837 936.419 L 964.648 936.985 L 929.344 936.796 L 929.533 936.23 L 931.987 934.908 C 935.335 932.575 931.489 928.325 930.077 926.435 C 925.56 920.393 920.298 914.919 914.43 910.177 L 914.43 910.177 L 859.681 853.54 L 859.492 930.755 C 859.796 932.549 860.692 934.198 862.324 935.097 L 862.324 935.097 L 865.156 936.419 L 864.967 936.985 L 831.929 936.796 L 832.118 936.23 C 837.876 935.124 838.486 929.625 837.593 924.714 L 837.593 924.714 L 837.593 904.702 L 837.593 824.656 L 835.516 821.446 L 831.929 819.747 L 832.118 819.181 Z " fill-rule="evenodd" fill="rgb(247,207,0)"/><path d=" M 961.627 825.599 L 961.816 930.377 L 961.438 930.377 L 961.627 825.599 Z  M 776.614 825.977 L 776.803 930 L 776.425 930 L 776.614 825.977 Z  M 835.516 825.977 L 835.705 930 L 835.327 930 L 835.516 825.977 Z  M 804.932 826.355 L 805.121 929.622 L 804.744 929.622 L 804.932 826.355 Z " fill-rule="evenodd" fill="rgb(0,0,0)"/><path d=" M 935.574 826.355 L 935.763 895.64 L 935.386 895.64 L 935.574 826.355 Z  M 804.177 826.732 L 804.366 929.245 L 803.989 929.245 L 804.177 826.732 Z  M 873.274 830.886 L 875.162 833.151 L 873.274 830.886 Z  M 504.758 832.773 L 508.345 832.962 L 504.758 833.151 L 504.758 832.773 Z " fill-rule="evenodd" fill="rgb(0,0,0)"/><path d=" M 508.534 832.773 L 508.723 863.924 L 508.345 863.924 L 508.534 832.773 Z " fill="rgb(0,0,0)"/><path d=" M 504.381 833.151 L 508.345 833.34 L 508.156 863.735 L 504.192 863.546 Q 503.862 860.289 501.738 858.826 Q 495.46 856.23 484.747 858.071 L 440.192 858.071 C 438.59 859.139 439.2 861.678 439.626 863.168 L 439.626 863.168 L 439.626 877.516 C 440.138 878.54 441.564 878.306 442.458 878.083 L 442.458 878.083 L 449.254 878.083 L 476.44 878.083 C 477.998 877.973 479.558 877.397 480.405 876.006 L 480.405 876.006 L 481.726 872.419 L 485.691 872.608 L 485.502 902.625 L 481.537 902.437 C 480.838 895.541 472.924 896.146 467.756 896.962 L 467.756 896.962 L 440.192 896.962 C 438.406 898.213 439.135 901.132 439.626 902.814 L 439.626 902.814 L 439.626 919.05 C 440.508 920.46 442.68 919.974 443.968 919.616 L 443.968 919.616 L 455.673 919.616 L 502.115 919.616 C 503.546 919.427 504.918 918.801 505.702 917.54 L 505.702 917.54 L 507.024 913.953 L 510.988 914.141 L 510.8 944.536 L 506.835 944.348 C 506.715 943.164 506.398 941.974 505.721 940.977 C 503.786 938.129 499.42 938.457 496.452 938.873 L 496.452 938.873 L 478.705 938.873 L 408.665 938.684 L 408.854 934.719 C 410.695 934.498 412.25 933.809 413.53 932.458 C 415.147 930.753 414.775 927.919 414.328 925.846 L 414.328 925.846 L 414.328 909.988 L 414.328 846.555 L 412.252 844.101 L 408.665 842.779 L 408.854 838.815 L 476.44 838.815 L 493.431 838.815 C 496.592 839.395 500.916 839.695 503.059 836.738 L 503.059 836.738 L 504.381 833.151 Z " fill="rgb(1,89,50)"/><line x1="875.54" y1="833.151" x2="877.05" y2="835.039"/><path d=" M 507.779 833.906 L 507.968 862.791 L 507.59 862.791 L 507.779 833.906 Z " fill="rgb(0,0,0)"/><path d=" M 877.427 835.039 L 879.693 837.682 L 877.427 835.039 Z  M 574.61 836.172 L 577.82 836.36 L 574.61 836.549 L 574.61 836.172 Z " fill-rule="evenodd" fill="rgb(0,0,0)"/><path d=" M 578.386 836.172 L 584.616 836.36 L 578.386 836.549 L 578.386 836.172 Z " fill="rgb(0,0,0)"/><path d=" M 573.477 836.549 C 586.54 835.7 600.508 836.524 612.368 842.59 L 612.368 842.59 L 625.206 849.387 C 626.427 851.759 629.201 852.203 631.624 852.03 L 631.624 852.03 L 634.267 850.52 L 637.477 852.974 L 621.807 875.817 Q 618.991 875.99 618.598 873.741 Q 619.55 868.447 616.521 867.133 Q 604.627 856.939 582.917 856.561 Q 564.923 857.823 555.92 868.077 Q 547.06 875.641 547.991 892.997 Q 550.046 905.29 557.997 911.687 Q 567.628 921.313 587.07 921.127 Q 606.633 919.356 617.843 909.233 Q 619.554 907.357 619.164 903.38 L 621.43 901.87 L 637.477 924.714 L 634.267 927.168 L 630.492 925.28 L 611.235 935.475 Q 596.903 942.664 573.855 941.138 Q 547.171 938.56 534.021 922.448 Q 521.133 909.471 522.316 882.425 Q 525.846 860.657 539.873 849.387 Q 552.248 838.541 573.477 836.549 Z " fill="rgb(1,89,50)"/><path d=" M 278.589 838.437 L 315.026 838.626 L 278.589 838.815 L 278.589 838.437 Z " fill="rgb(0,0,0)"/><path d=" M 315.214 838.437 L 315.403 842.779 L 314.648 843.157 C 316.032 842.093 315.586 839.869 315.214 838.437 L 315.214 838.437 Z  M 356.748 838.437 C 356.376 839.869 355.93 842.093 357.314 843.157 L 357.314 843.157 L 356.559 842.779 L 356.748 838.437 Z " fill-rule="evenodd" fill="rgb(0,0,0)"/><path d=" M 357.125 838.437 L 393.562 838.626 L 357.125 838.815 L 357.125 838.437 Z  M 408.854 838.437 L 499.283 838.626 L 408.854 838.815 L 408.854 838.437 Z  M 645.972 838.437 L 682.409 838.626 L 645.972 838.815 L 645.972 838.437 Z " fill-rule="evenodd" fill="rgb(0,0,0)"/><path d=" M 682.597 838.437 L 682.786 842.779 L 682.031 843.157 C 683.415 842.093 682.969 839.869 682.597 838.437 L 682.597 838.437 Z  M 710.916 838.437 C 710.544 839.869 710.098 842.093 711.482 843.157 L 711.482 843.157 L 710.916 843.346 L 710.916 838.437 Z " fill-rule="evenodd" fill="rgb(0,0,0)"/><path d=" M 711.293 838.437 L 757.169 838.626 L 711.293 838.815 L 711.293 838.437 Z " fill="rgb(0,0,0)"/><path d=" M 278.589 838.815 L 315.026 839.003 L 314.837 842.968 C 313.665 843.119 312.498 843.459 311.504 844.119 C 308.253 846.277 308.873 851.598 309.362 854.862 L 309.362 854.862 L 309.362 876.006 C 310.058 877.225 311.855 876.864 312.949 876.572 L 312.949 876.572 L 322.766 876.572 L 362.411 876.572 L 362.6 847.31 L 360.901 844.478 L 356.937 842.779 L 357.125 838.815 L 393.562 839.003 L 393.373 842.968 C 391.463 843.197 389.272 844.018 388.276 845.8 C 387.317 847.514 387.603 850.003 387.898 851.841 L 387.898 851.841 L 387.898 867.699 L 387.898 930.755 L 389.597 933.209 L 393.562 934.908 L 393.373 938.873 L 356.937 938.684 L 357.125 934.719 C 358.297 934.568 359.464 934.228 360.458 933.568 C 363.931 931.262 363.123 925.069 362.6 921.693 L 362.6 921.693 L 362.6 896.018 L 309.928 895.829 C 309.004 896.249 309.172 897.487 309.362 898.283 L 309.362 898.283 L 309.362 904.702 L 309.362 930 C 309.71 931.465 310.512 932.789 311.816 933.587 L 311.816 933.587 L 315.026 934.908 L 314.837 938.873 L 278.4 938.684 L 278.589 934.719 C 280.43 934.498 281.986 933.809 283.266 932.458 C 284.846 930.791 284.393 927.487 284.064 925.469 L 284.064 925.469 L 284.064 909.611 L 284.064 846.555 L 281.987 844.101 L 278.4 842.779 L 278.589 838.815 Z  M 645.972 838.815 L 682.409 839.003 L 682.22 842.968 C 681.048 843.119 679.881 843.459 678.887 844.119 C 675.55 846.335 676.241 851.91 676.745 855.239 L 676.745 855.239 L 676.745 878.649 L 677.689 878.083 L 715.258 848.065 C 716.852 846.67 716.066 844.721 714.545 843.823 C 713.5 843.206 712.301 842.904 711.104 842.779 L 711.104 842.779 L 711.293 838.815 L 757.169 839.003 L 756.98 842.968 C 753.779 843.247 750.548 844.345 748.485 846.933 L 748.485 846.933 L 739.989 854.295 L 707.706 879.782 C 719.383 894.493 731.687 908.707 744.584 922.361 C 749.496 927.561 753.571 933.583 760.945 934.908 L 760.945 934.908 L 760.756 938.873 L 716.013 938.684 L 716.202 934.719 Q 719.458 934.389 720.921 932.265 Q 718.567 925.558 712.992 922.071 L 689.771 894.319 L 676.745 905.08 L 676.745 923.581 C 676.26 926.576 676.047 930.295 678.066 932.832 L 678.066 932.832 L 682.409 934.908 L 682.22 938.873 L 645.784 938.684 L 645.972 934.719 C 647.813 934.498 649.369 933.809 650.649 932.458 C 652.266 930.753 651.894 927.919 651.447 925.846 L 651.447 925.846 L 651.447 909.988 L 651.447 846.555 L 649.371 844.101 L 645.784 842.779 L 645.972 838.815 Z " fill-rule="evenodd" fill="rgb(1,89,50)"/><line x1="881.581" y1="839.57" x2="883.469" y2="841.835"/><line x1="883.846" y1="841.835" x2="885.357" y2="843.723"/><path d=" M 885.734 843.723 L 888 846.366 L 885.734 843.723 Z  M 283.875 847.121 L 284.064 930.377 L 283.687 930.377 L 283.875 847.121 Z " fill-rule="evenodd" fill="rgb(0,0,0)"/><path d=" M 309.551 847.499 L 309.928 876.195 L 362.6 876.384 L 309.928 876.572 C 307.671 874.857 308.692 871.052 309.362 868.832 L 309.362 868.832 L 309.551 847.499 Z " fill="rgb(0,0,0)"/><path d=" M 388.087 847.499 L 388.276 930 L 387.898 930 L 388.087 847.499 Z " fill="rgb(0,0,0)"/><path d=" M 676.934 847.499 L 677.122 878.649 L 676.745 878.649 L 676.934 847.499 Z  M 889.887 848.254 L 891.775 850.52 L 889.887 848.254 Z " fill-rule="evenodd" fill="rgb(0,0,0)"/><path d=" M 362.411 848.632 L 362.6 875.251 L 362.223 875.251 L 362.411 848.632 Z " fill="rgb(0,0,0)"/><path d=" M 363.167 848.632 L 363.355 875.251 L 362.978 875.251 L 363.167 848.632 Z " fill="rgb(0,0,0)"/><path d=" M 538.363 850.52 L 535.72 853.54 L 538.363 850.52 Z  M 892.153 850.52 L 893.663 852.407 L 892.153 850.52 Z " fill-rule="evenodd" fill="rgb(0,0,0)"/><line x1="894.041" y1="852.407" x2="896.306" y2="855.051"/><path d=" M 582.917 856.561 L 587.259 856.75 L 582.917 856.938 L 582.917 856.561 Z  M 898.194 856.938 L 900.46 859.581 L 898.194 856.938 Z  M 440.192 858.071 L 499.661 858.26 L 440.004 858.638 L 440.192 877.705 L 476.629 877.894 L 440.192 878.083 C 438.59 877.015 439.2 874.475 439.626 872.985 L 439.626 872.985 L 439.626 858.638 L 440.192 858.071 Z  M 861.947 858.071 L 864.401 860.903 L 861.758 859.015 L 861.569 930.188 L 861.38 858.638 L 861.947 858.071 Z " fill-rule="evenodd" fill="rgb(0,0,0)"/><line x1="900.837" y1="859.581" x2="902.348" y2="861.469"/><path d=" M 902.725 861.469 L 904.613 863.735 L 902.725 861.469 Z  M 866.478 863.357 L 869.121 866.378 L 866.478 863.357 Z " fill-rule="evenodd" fill="rgb(0,0,0)"/><path d=" M 504.758 863.735 L 508.345 863.924 L 504.758 864.112 L 504.758 863.735 Z  M 906.878 866 L 908.766 868.266 L 906.878 866 Z " fill-rule="evenodd" fill="rgb(0,0,0)"/><path d=" M 869.498 866.378 L 871.386 868.643 L 869.498 866.378 Z  M 909.144 868.266 L 910.654 870.154 L 909.144 868.266 Z " fill-rule="evenodd" fill="rgb(0,0,0)"/><line x1="871.764" y1="868.643" x2="874.029" y2="871.286"/><line x1="911.032" y1="870.154" x2="912.92" y2="872.419"/><path d=" M 482.104 872.042 L 485.691 872.23 L 482.104 872.419 L 482.104 872.042 Z " fill="rgb(0,0,0)"/><path d=" M 485.879 872.042 L 486.068 902.814 L 485.691 902.814 L 485.879 872.042 Z " fill="rgb(0,0,0)"/><path d=" M 485.124 873.174 L 485.313 901.681 L 484.935 901.681 L 485.124 873.174 Z " fill="rgb(0,0,0)"/><line x1="876.672" y1="873.929" x2="878.938" y2="876.572"/><line x1="915.185" y1="874.685" x2="917.073" y2="876.95"/><path d=" M 879.315 876.572 L 881.203 878.838 L 879.315 876.572 Z  M 917.451 876.95 L 918.961 878.838 L 917.451 876.95 Z " fill-rule="evenodd" fill="rgb(0,0,0)"/><line x1="881.581" y1="878.838" x2="883.846" y2="881.481"/><line x1="919.339" y1="878.838" x2="921.226" y2="881.103"/><line x1="923.492" y1="883.369" x2="925.38" y2="885.634"/><path d=" M 886.489 884.124 L 888.755 886.767 L 886.489 884.124 Z  M 548.18 885.634 L 548.368 891.864 L 547.991 891.864 L 548.18 885.634 Z " fill-rule="evenodd" fill="rgb(0,0,0)"/><line x1="925.757" y1="885.634" x2="927.268" y2="887.522"/><path d=" M 522.127 886.012 L 522.316 891.487 L 521.938 891.487 L 522.127 886.012 Z " fill="rgb(0,0,0)"/><line x1="889.132" y1="886.767" x2="891.02" y2="889.033"/><line x1="927.645" y1="887.522" x2="929.533" y2="889.788"/><path d=" M 891.398 889.033 L 893.663 891.676 L 891.398 889.033 Z  M 931.799 892.053 L 933.686 894.319 L 931.799 892.053 Z " fill-rule="evenodd" fill="rgb(0,0,0)"/><line x1="896.306" y1="894.319" x2="898.949" y2="897.339"/><path d=" M 309.928 895.829 L 362.6 896.018 L 309.739 896.395 L 309.551 930.188 L 309.362 896.395 L 309.928 895.829 Z " fill="rgb(0,0,0)"/><path d=" M 362.411 896.962 L 362.6 928.867 L 362.223 928.867 L 362.411 896.962 Z " fill="rgb(0,0,0)"/><path d=" M 363.167 896.962 L 363.355 928.489 L 362.978 928.489 L 363.167 896.962 Z  M 440.192 896.962 L 477.006 897.15 L 440.004 897.528 L 440.192 919.239 L 502.304 919.428 L 440.192 919.616 C 438.406 918.365 439.135 915.446 439.626 913.764 L 439.626 913.764 L 439.626 897.528 L 440.192 896.962 Z " fill-rule="evenodd" fill="rgb(0,0,0)"/><line x1="899.327" y1="897.339" x2="901.215" y2="899.605"/><path d=" M 901.592 899.605 L 903.858 902.248 L 901.592 899.605 Z  M 482.104 902.625 L 485.691 902.814 L 482.104 903.003 L 482.104 902.625 Z  M 677.689 904.136 L 677.122 905.08 L 676.934 930.188 L 676.745 911.498 Q 678.35 906.307 676.367 904.702 Q 677.028 905.3 677.689 904.136 Z " fill-rule="evenodd" fill="rgb(0,0,0)"/><path d=" M 906.123 904.513 L 908.766 907.534 L 906.123 904.513 Z  M 164.938 904.891 L 168.148 905.08 L 164.938 905.268 L 164.938 904.891 Z " fill-rule="evenodd" fill="rgb(0,0,0)"/><line x1="909.144" y1="907.534" x2="911.032" y2="909.799"/><path d=" M 64.88 908.667 L 67.146 911.31 L 64.88 908.667 Z  M 911.409 909.799 L 913.675 912.442 L 911.409 909.799 Z  M 67.901 911.687 L 69.789 913.953 L 67.901 911.687 Z  M 507.401 913.575 C 508.6 913.248 510.579 912.83 511.366 914.141 L 511.366 914.141 L 511.366 936.796 C 512.07 939.119 513.151 943.105 510.8 944.914 L 510.8 944.914 L 506.835 944.725 L 510.988 944.348 L 510.8 913.953 C 510.366 914.05 506.989 914.916 507.401 913.575 L 507.401 913.575 Z " fill-rule="evenodd" fill="rgb(0,0,0)"/><line x1="916.318" y1="915.085" x2="918.583" y2="917.728"/><line x1="918.961" y1="917.728" x2="920.849" y2="919.994"/><path d=" M 921.226 919.994 L 923.492 922.637 L 921.226 919.994 Z  M 583.294 920.749 L 587.259 920.938 L 583.294 921.127 L 583.294 920.749 Z " fill-rule="evenodd" fill="rgb(0,0,0)"/><line x1="535.342" y1="923.77" x2="538.363" y2="927.168"/><path d=" M 926.135 925.28 L 928.023 927.545 L 926.135 925.28 Z  M 749.429 927.168 L 752.449 930.566 L 749.429 927.168 Z  M 314.837 934.342 C 316.343 935.317 315.795 937.673 315.403 939.062 L 315.403 939.062 L 315.026 939.062 C 315.157 937.658 315.518 935.665 314.837 934.342 L 314.837 934.342 Z  M 357.125 934.342 L 356.937 934.908 L 356.748 939.25 L 356.559 934.908 L 357.125 934.342 Z  M 682.22 934.342 C 683.726 935.317 683.178 937.673 682.786 939.062 L 682.786 939.062 L 682.409 939.062 C 682.541 937.658 682.901 935.665 682.22 934.342 L 682.22 934.342 Z  M 716.202 934.342 L 716.013 934.908 L 715.824 939.25 L 715.635 934.908 L 716.202 934.342 Z  M 771.328 934.342 L 771.139 934.908 L 770.951 939.25 L 770.762 934.908 L 771.328 934.342 Z  M 810.219 934.342 C 811.725 935.317 811.177 937.673 810.785 939.062 L 810.785 939.062 L 810.407 939.062 C 810.539 937.658 810.9 935.665 810.219 934.342 L 810.219 934.342 Z  M 830.23 934.342 L 830.041 934.908 L 829.853 939.25 L 829.664 934.908 L 830.23 934.342 Z  M 866.855 934.342 C 868.362 935.317 867.813 937.673 867.422 939.062 L 867.422 939.062 L 867.044 939.062 C 867.176 937.658 867.537 935.665 866.855 934.342 L 866.855 934.342 Z  M 927.645 934.342 L 927.456 934.908 L 927.268 939.25 L 927.079 934.908 L 927.645 934.342 Z " fill-rule="evenodd" fill="rgb(0,0,0)"/><path d=" M 278.589 938.873 L 315.026 939.062 L 278.589 939.25 L 278.589 938.873 Z  M 357.125 938.873 L 393.562 939.062 L 357.125 939.25 L 357.125 938.873 Z  M 408.854 938.873 L 502.304 939.062 L 408.854 939.25 L 408.854 938.873 Z  M 645.972 938.873 L 682.409 939.062 L 645.972 939.25 L 645.972 938.873 Z  M 716.202 938.873 L 760.945 939.062 L 716.202 939.25 L 716.202 938.873 Z  M 771.328 938.873 L 810.407 939.062 L 771.328 939.25 L 771.328 938.873 Z  M 830.23 938.873 L 867.044 939.062 L 830.23 939.25 L 830.23 938.873 Z  M 927.645 938.873 L 967.102 939.062 L 927.645 939.25 L 927.645 938.873 Z " fill-rule="evenodd" fill="rgb(0,0,0)"/><path d=" M 574.988 941.138 L 578.197 941.327 L 574.988 941.516 L 574.988 941.138 Z " fill="rgb(0,0,0)"/><path d=" M 578.763 941.138 L 584.238 941.327 L 578.763 941.516 L 578.763 941.138 Z " fill="rgb(0,0,0)"/><path d=" M 584.805 941.138 L 588.014 941.327 L 584.805 941.516 L 584.805 941.138 Z " fill="rgb(0,0,0)"/><path d=" M 186.46 944.536 L 186.272 945.103 L 186.083 983.049 L 185.894 945.103 L 186.46 944.536 Z " fill="rgb(0,0,0)"/><path d=" M 149.835 945.669 L 150.213 983.049 L 186.272 983.238 L 149.835 983.427 L 149.835 945.669 Z " fill="rgb(0,0,0)"/><path d=" M 150.59 945.669 L 150.968 982.294 L 185.139 982.483 L 150.968 982.672 C 149.944 982.16 150.178 980.734 150.402 979.84 L 150.402 979.84 L 150.402 973.044 L 150.59 945.669 Z " fill="rgb(0,0,0)"/></g><g><circle vector-effect="non-scaling-stroke" cx="491.14680882268874" cy="398.8531911773114" r="378.8531911773114" fill="rgb(0,134,75)"/><g opacity="0.4"><path d=" M 285.04 710.709 C 284.486 702.495 285.974 694.979 293.08 689.817 C 295.615 687.919 294.983 686.259 293.588 684.173 C 289.115 677.183 285.873 669.478 284.001 661.393 C 279.113 642.469 284.581 625.738 294.24 609.785 Q 298.947 602.004 303.815 594.32 C 305.213 592.104 305.139 590.669 302.836 588.752 C 297.077 583.947 298.267 575.555 305.201 573.472 C 308.984 572.332 310.232 570.292 311.586 567.032 C 316.418 555.388 321.676 543.909 326.749 532.399 C 339.183 504.065 346.539 474.388 350.089 443.734 C 351.471 431.816 352.459 419.863 353.631 407.928 C 354.098 403.188 352.613 401.433 347.943 401.394 C 344.097 401.36 340.254 401.39 336.423 401.381 C 329.179 401.385 323.657 397.538 321.605 391.034 C 319.756 385.293 322.54 377.2 327.506 373.396 C 330.899 370.645 335.263 369.391 339.599 369.919 C 342.542 370.266 343.418 369.013 343.546 366.145 Q 344.601 342.407 346.036 318.681 C 346.244 315.246 344.151 313.033 342.542 310.538 C 330.042 291.241 316.115 272.854 304.94 252.729 C 294.373 233.704 304.493 210.998 325.052 206.12 C 331.523 204.541 338.088 205.18 344.631 205.297 C 348.269 205.38 349.216 204.268 349.17 200.687 C 349.043 191.121 351.961 188.37 361.429 188.404 L 413.284 188.356 C 422.92 188.356 425.843 191.005 425.642 200.546 C 425.563 204.563 426.98 205.301 430.587 205.267 C 439.03 205.174 447.545 204.306 455.672 207.9 C 472.181 215.235 478.966 235.439 470.401 252.221 C 464.711 263.365 456.898 273.147 450.173 283.629 C 444.135 293.035 437.748 302.221 431.441 311.456 C 430.125 313.269 429.474 315.481 429.6 317.718 C 430.356 333.861 431.114 350.016 431.636 366.169 C 431.778 369.562 433.21 370.025 436.073 370.009 C 445.226 370.017 451.745 375.797 453.696 384.881 C 455.456 393.162 447.912 402.802 439.882 401.518 C 435.933 400.899 431.863 401.75 427.91 401.341 C 423.957 400.932 422.744 402.866 422.331 406.1 C 422.044 407.508 421.903 408.943 421.909 410.38 C 424.682 445.24 429.633 479.669 442.7 512.436 C 449.627 529.797 457.658 546.654 465.586 563.554 C 466.178 564.676 466.665 565.85 467.041 567.062 C 467.901 570.413 469.238 572.671 473.277 573.272 C 477.317 573.874 479.067 577.566 479.633 581.374 C 480.271 584.508 478.68 587.672 475.783 589.028 C 471.373 590.795 472.625 592.913 474.348 595.626 C 481.638 606.697 487.216 618.805 490.894 631.541 C 495.637 648.576 493.701 664.74 484.547 679.952 C 481.003 685.841 481.169 687.939 485.7 693.07 C 490.231 698.202 490.45 704.364 490.635 710.619 L 285.04 710.709 Z " fill="rgb(63,11,137)"/></g><g opacity="0.4"><path d=" M 396.247 104.667 C 399.277 107.215 403.628 107.28 406.698 110.259 C 402.778 114.491 398.402 118.397 395.907 123.806 C 395.031 125.513 394.443 127.354 394.169 129.254 C 393.699 133.682 395.802 135.981 400.244 135.681 C 407.272 135.211 412.394 130.926 417.123 126.432 C 419.866 123.819 420.611 125.125 421.525 127.516 C 425.495 137.632 425.021 148.952 420.219 158.7 C 419.2 160.868 418.325 162.227 416.078 159.327 C 413.154 155.497 409.443 152.339 405.195 150.064 C 401.942 148.34 398.298 146.367 394.901 148.993 C 391.086 151.946 392.928 155.943 394.222 159.575 C 396.024 164.644 399.447 168.72 402.896 172.639 C 403.392 173.201 404.359 173.357 405.862 174.037 C 393.281 180.412 382.347 180.425 371.281 174.99 C 368.486 173.619 367.597 172.678 370.589 170.157 C 375.005 166.433 378.741 161.953 380.439 156.244 C 381.249 153.5 382.085 150.365 379.512 148.131 C 376.938 145.897 373.933 146.825 371.242 147.713 C 366.291 149.548 361.823 152.487 358.178 156.309 C 355.435 159.092 354.638 158.086 353.593 155.003 C 350.208 145.208 350.723 134.486 355.03 125.06 C 356.336 121.899 357.525 121.049 360.125 124.237 C 364.201 129.214 368.982 133.473 375.606 134.884 C 380.648 135.955 383.183 133.578 382.608 128.352 C 381.706 120.2 376.35 114.609 371.334 108.9 C 374.038 106.117 378.349 106.771 380.949 104.001 L 396.247 104.667 Z " fill="rgb(63,11,137)"/></g><path d=" M 292.431 657.584 C 294.022 649.506 297.405 642.632 305.604 639.484 C 308.544 638.307 308.363 636.54 307.555 634.164 C 305.044 626.255 303.906 617.973 304.191 609.679 C 304.367 590.135 313.98 575.39 327.438 562.48 Q 333.999 556.182 340.69 550.02 C 342.613 548.241 342.914 546.836 341.185 544.388 C 336.866 538.256 340.188 530.458 347.424 530.241 C 351.374 530.119 353.107 528.472 355.258 525.673 C 362.94 515.676 370.989 505.949 378.869 496.144 C 398.212 471.994 412.999 445.232 424.361 416.541 C 428.781 405.388 432.829 394.097 437.05 382.873 C 438.728 378.415 437.747 376.335 433.247 375.089 C 429.541 374.06 425.821 373.096 422.123 372.095 C 415.125 370.224 410.786 365.078 410.488 358.265 C 410.187 352.241 414.972 345.145 420.753 342.755 C 424.742 340.977 429.282 340.894 433.333 342.527 C 436.087 343.624 437.257 342.64 438.123 339.902 Q 445.286 317.247 452.812 294.7 C 453.903 291.437 452.454 288.757 451.546 285.931 C 444.465 264.056 435.772 242.691 430.186 220.36 C 424.903 199.248 440.556 179.935 461.677 180.544 C 468.336 180.693 474.512 183.01 480.801 184.817 C 484.294 185.838 485.497 185.009 486.379 181.538 C 488.732 172.265 492.262 170.364 501.399 172.847 L 551.5 186.221 C 560.808 188.716 562.945 192.031 560.282 201.194 C 559.166 205.054 560.343 206.134 563.837 207.035 C 572.016 209.13 580.465 210.495 587.385 216.071 C 601.433 227.428 602.758 248.7 590.141 262.694 C 581.761 271.985 571.682 279.412 562.473 287.796 C 554.207 295.319 545.66 302.539 537.178 309.827 C 535.437 311.237 534.236 313.205 533.778 315.399 C 530.331 331.187 526.881 346.988 523.205 362.725 C 522.465 366.04 523.728 366.858 526.497 367.583 C 535.336 369.96 540.137 377.23 539.671 386.509 C 539.227 394.964 529.445 402.323 522.021 399.004 C 518.367 397.385 514.215 397.153 510.503 395.735 C 506.791 394.317 505.118 395.871 503.882 398.887 C 503.241 400.174 502.733 401.523 502.367 402.913 C 496.023 437.303 491.895 471.84 496.035 506.872 C 498.233 525.434 501.628 543.795 504.911 562.171 C 505.192 563.409 505.359 564.669 505.409 565.937 C 505.372 569.396 506.079 571.923 509.825 573.55 C 513.571 575.176 514.307 579.196 513.867 583.02 C 513.673 586.212 511.317 588.857 508.168 589.417 C 503.45 589.982 504.112 592.352 505.074 595.418 C 509.25 607.999 511.504 621.139 511.76 634.393 C 511.933 652.074 505.88 667.186 493.1 679.511 C 488.153 684.282 487.771 686.352 490.819 692.481 C 493.867 698.61 492.484 704.619 491.043 710.709 L 292.431 657.584 Z " fill="rgb(63,11,137)"/><path d=" M 555.225 100.975 C 557.493 104.22 561.678 105.409 563.873 109.081 C 558.992 112.155 553.753 114.795 549.943 119.373 C 548.655 120.796 547.611 122.422 546.855 124.186 C 545.255 128.342 546.691 131.107 551.059 131.966 C 557.97 133.331 564.025 130.518 569.757 127.401 C 573.083 125.587 573.464 127.042 573.728 129.588 C 574.945 140.386 571.557 151.197 564.396 159.371 C 562.85 161.202 561.653 162.287 560.233 158.904 C 558.4 154.449 555.633 150.437 552.119 147.141 C 549.423 144.634 546.413 141.785 542.453 143.442 C 538.004 145.307 538.749 149.645 539.058 153.487 C 539.487 158.85 541.739 163.673 544.055 168.351 C 544.39 169.022 545.283 169.424 546.558 170.469 C 532.756 173.371 522.191 170.553 512.909 162.44 C 510.564 160.392 509.949 159.253 513.492 157.592 C 518.72 155.139 523.489 151.777 526.607 146.702 C 528.1 144.262 529.719 141.45 527.811 138.626 C 525.903 135.802 522.761 135.921 519.932 136.082 C 514.674 136.573 509.597 138.256 505.088 141.004 C 501.718 142.982 501.208 141.804 500.997 138.555 C 500.263 128.218 503.535 117.995 510.135 110.005 C 512.215 107.289 513.583 106.777 515.269 110.529 C 517.918 116.391 521.434 121.743 527.467 124.82 C 532.06 127.16 535.124 125.519 535.921 120.323 C 537.16 112.215 533.433 105.428 530.065 98.615 C 533.398 96.628 537.393 98.374 540.621 96.372 L 555.225 100.975 Z " fill="rgb(63,11,137)"/><path d=" M 312.488 607.99 C 316.115 600.599 321.161 594.834 329.896 593.916 C 333.041 593.54 333.323 591.786 333.158 589.282 C 332.78 580.992 333.824 572.699 336.245 564.761 C 341.474 545.928 354.575 534.173 370.917 525.187 Q 378.884 520.802 386.942 516.581 C 389.26 515.361 389.914 514.081 388.878 511.269 C 386.293 504.229 391.519 497.556 398.566 499.219 C 402.412 500.124 404.513 498.981 407.315 496.834 C 417.322 489.166 427.615 481.854 437.764 474.422 C 462.699 456.101 483.908 434.079 502.309 409.306 C 509.464 399.676 516.297 389.819 523.279 380.069 C 526.054 376.198 525.645 373.935 521.62 371.566 C 518.307 369.614 514.964 367.719 511.65 365.795 C 505.375 362.177 502.516 356.083 503.991 349.425 C 505.26 343.529 511.718 337.912 517.921 337.1 C 522.234 336.415 526.641 337.511 530.131 340.136 C 532.507 341.908 533.892 341.261 535.437 338.841 Q 548.219 318.811 561.325 298.981 C 563.223 296.111 562.517 293.147 562.371 290.182 C 561.194 267.22 558.327 244.333 558.711 221.317 C 559.072 199.557 579.19 184.954 599.433 191.009 C 605.827 192.876 611.193 196.712 616.8 200.085 C 619.91 201.976 621.286 201.486 623.037 198.362 C 627.709 190.014 631.612 189.091 639.794 193.854 L 684.726 219.74 C 693.072 224.558 694.278 228.314 689.334 236.476 C 687.257 239.915 688.115 241.263 691.256 243.037 C 698.614 247.178 706.422 250.684 711.663 257.86 C 722.293 272.466 718.067 293.356 702.259 303.608 C 691.759 310.414 680.101 314.979 669.037 320.693 C 659.104 325.821 648.98 330.583 638.901 335.427 C 636.855 336.339 635.185 337.929 634.175 339.929 C 626.759 354.287 619.337 368.657 611.713 382.907 C 610.14 385.917 611.148 387.033 613.636 388.451 C 621.559 393.034 624.314 401.3 621.462 410.142 C 618.846 418.194 607.492 422.77 601.18 417.643 C 598.069 415.133 594.119 413.835 590.9 411.504 C 587.682 409.173 585.664 410.241 583.689 412.835 C 582.737 413.912 581.897 415.084 581.184 416.331 C 566.155 447.908 553.229 480.2 548.161 515.11 C 545.48 533.608 544.007 552.222 542.422 570.822 C 542.374 572.09 542.208 573.35 541.928 574.588 C 540.998 577.919 541.027 580.544 544.224 583.084 C 547.421 585.625 547.091 589.698 545.677 593.278 C 544.663 596.312 541.703 598.256 538.516 597.982 C 533.813 597.307 533.839 599.768 533.974 602.978 C 534.752 616.211 533.529 629.487 530.346 642.355 C 525.936 659.479 516.178 672.509 500.644 681.107 C 494.63 684.434 493.725 686.335 495.083 693.044 C 496.441 699.753 493.55 705.2 490.582 710.709 L 312.488 607.99 Z " fill="rgb(237,237,237)"/><path d=" M 710.433 137.948 C 711.784 141.669 715.518 143.901 716.688 148.015 C 711.177 149.721 705.434 150.916 700.569 154.352 C 698.957 155.393 697.528 156.693 696.341 158.201 C 693.719 161.801 694.391 164.844 698.388 166.805 C 704.71 169.912 711.287 168.761 717.63 167.234 C 721.312 166.343 721.304 167.847 720.9 170.374 C 719.28 181.12 713.21 190.686 704.177 196.727 C 702.21 198.096 700.773 198.835 700.277 195.199 C 699.66 190.421 698.025 185.83 695.484 181.737 C 693.529 178.617 691.359 175.086 687.104 175.662 C 682.325 176.312 681.921 180.695 681.225 184.486 C 680.252 189.778 681.178 195.019 682.205 200.137 C 682.355 200.872 683.113 201.491 684.075 202.831 C 669.992 202.061 660.516 196.605 653.651 186.366 C 651.915 183.781 651.616 182.522 655.468 181.834 C 661.153 180.818 666.63 178.805 670.955 174.71 C 673.028 172.739 675.32 170.442 674.208 167.221 C 673.096 163.999 670.03 163.3 667.255 162.724 C 662.05 161.837 656.711 162.149 651.644 163.636 C 647.877 164.674 647.689 163.405 648.326 160.212 C 650.292 150.037 656.099 141.009 664.542 135 C 667.254 132.915 668.708 132.774 669.365 136.835 C 670.407 143.183 672.418 149.262 677.449 153.796 C 681.28 157.245 684.664 156.453 686.779 151.64 C 690.074 144.129 688.231 136.609 686.741 129.157 C 690.474 128.099 693.881 130.82 697.517 129.722 L 710.433 137.948 Z " fill="rgb(237,237,237)"/><path d=" M 713.368 502.539 Q 791.952 502.963 825.86 548.063 Q 859.277 580.485 858.216 647.387 Q 849.746 706.262 812.692 736.553 Q 796.325 751.413 773.564 759.879 L 772.436 759.503 L 772.059 760.632 Q 748.873 770.93 713.368 768.909 Q 654.493 760.439 624.202 723.385 Q 590.467 691.28 591.846 624.061 Q 600.316 565.186 637.37 534.895 Q 665.413 508.761 713.368 502.539 Z " fill="rgb(247,207,0)"/><path d=" M 729.169 522.856 Q 782.798 528.295 810.058 560.102 Q 838.092 588.127 838.652 643.625 Q 832.836 690.857 805.167 716.237 L 804.039 716.613 L 803.663 717.742 C 782.698 740.793 750.971 748.449 720.892 749.345 L 720.892 749.345 L 718.635 748.593 L 717.13 748.593 C 703.32 747.257 689.544 744.355 676.748 738.889 C 639.661 723.047 618.495 686.063 612.915 647.387 L 612.915 647.387 L 613.667 645.882 C 611.919 644.834 612.482 642.203 612.915 640.615 L 612.915 640.615 L 612.915 624.813 C 616.237 599.426 625.599 574.287 644.894 556.716 L 644.894 556.716 L 646.023 556.34 L 646.399 555.211 L 647.528 554.835 L 650.161 551.449 C 666.965 535.469 689.249 527.119 711.863 523.608 L 711.863 523.608 L 713.368 523.608 L 724.655 523.608 C 726.041 523.973 728.305 524.411 729.169 522.856 L 729.169 522.856 Z " fill="rgb(236,193,47)"/><path d=" M 726.912 533.39 L 726.912 534.895 L 728.417 534.142 L 729.922 534.895 C 731.489 532.432 736.235 534.125 738.455 534.451 C 749.525 536.075 760.408 539.162 769.802 545.429 L 769.802 545.429 L 771.307 545.429 C 788.135 553.484 801.246 566.58 809.306 583.428 L 809.306 583.428 L 808.554 583.428 L 807.425 580.795 L 806.296 580.419 L 805.92 579.29 L 784.475 563.112 L 784.099 561.983 C 779.443 561.135 774.991 559.033 772.059 555.211 L 772.059 555.211 L 770.555 555.211 C 756.938 548.648 741.624 547.317 726.718 547.551 C 717.836 547.691 708.741 549.416 700.576 552.954 L 700.576 552.954 L 699.071 552.201 C 696.547 555.502 692.554 557.022 688.537 557.469 L 688.537 557.469 L 687.408 557.092 L 687.032 558.221 L 669.349 569.132 L 667.468 571.765 L 657.31 581.171 L 656.934 582.3 L 655.805 582.676 C 648.699 590.966 643.362 600.654 639.627 610.893 L 639.627 610.893 L 638.498 611.269 L 639.251 612.774 Q 631.534 629.136 633.231 654.912 Q 635.112 656.04 633.984 660.179 Q 632.103 661.308 634.736 662.436 Q 635.576 674.012 640.003 682 L 639.627 683.129 L 640.756 683.505 L 645.271 694.039 L 642.637 694.416 L 637.746 688.02 L 638.122 686.891 L 636.241 685.762 L 627.964 666.951 L 628.716 665.446 L 627.212 664.694 C 620.355 645.171 620.688 621.042 628.34 601.864 L 628.34 601.864 L 629.469 601.487 L 629.469 599.982 Q 638.3 574.576 656.934 558.974 Q 678.258 536.28 720.14 534.142 L 721.645 534.142 C 723.232 534.575 725.863 535.138 726.912 533.39 L 726.912 533.39 Z  M 720.892 562.736 L 721.269 574.399 L 720.516 574.399 L 720.892 562.736 Z  M 741.961 577.785 L 749.109 581.923 L 747.981 581.547 C 746.199 581.273 741.447 580.613 741.961 577.785 L 741.961 577.785 Z  M 702.833 586.062 L 701.705 587.943 L 699.824 591.329 L 699.447 590.2 L 702.833 586.062 Z  M 753.248 586.062 L 755.129 587.191 L 757.387 590.953 L 756.634 590.953 L 753.248 586.062 Z  M 714.873 600.359 L 714.496 601.487 L 713.744 607.507 L 714.496 609.012 L 713.744 609.012 L 712.992 604.497 L 714.873 600.359 Z  M 734.437 623.685 L 739.328 625.566 L 738.199 625.942 C 737.066 625.836 733.895 625.552 734.437 623.685 L 734.437 623.685 Z  M 710.358 631.209 L 714.496 633.843 L 712.615 634.972 L 712.615 633.467 L 710.358 631.209 Z  M 749.486 631.962 L 752.119 633.843 L 752.496 634.972 L 754.377 636.1 L 754.753 637.229 L 756.634 638.358 L 757.387 639.863 L 753.624 636.853 L 753.248 635.724 L 749.486 631.962 Z  M 761.525 649.268 L 762.654 654.912 L 761.901 654.912 L 761.525 649.268 Z  M 762.277 656.793 L 762.654 664.694 L 761.525 668.832 L 761.149 665.446 C 763.714 663.51 762.948 659.439 762.277 656.793 L 762.277 656.793 Z  M 689.289 667.327 L 693.428 676.733 L 692.675 676.733 L 689.289 667.327 Z  M 714.12 673.347 L 718.259 675.981 L 717.13 675.604 C 716.084 675.417 713.631 674.938 714.12 673.347 L 714.12 673.347 Z  M 757.763 677.109 L 756.634 678.99 L 754 682.376 L 755.882 679.743 L 757.763 677.109 Z  M 698.319 683.129 L 699.071 684.634 L 703.21 688.02 L 700.576 686.139 L 697.942 684.258 L 698.319 683.129 Z  M 753.248 683.129 L 750.238 686.891 L 751.367 685.01 L 751.743 683.881 L 753.248 683.129 Z  M 706.596 689.901 L 712.992 692.535 L 711.11 692.911 C 709.682 692.679 706.091 692.107 706.596 689.901 L 706.596 689.901 Z  M 720.14 694.416 L 721.269 694.792 L 720.892 707.96 L 719.764 707.584 C 723.214 704.859 721.559 698.951 720.516 695.544 L 720.516 695.544 L 720.14 694.416 Z " fill-rule="evenodd" fill="rgb(247,207,0)"/><path d=" M 721.042 561.356 L 737.67 561.455 L 737.769 580.642 C 753.615 582.575 769.47 587.463 782.145 597.467 L 782.145 597.467 L 771.42 612.915 Q 764.433 607.898 755.873 604.453 Q 745.181 598.911 728.716 599.14 Q 706.626 601.452 694.967 614.195 Q 685.677 623.599 685.127 641.745 Q 687.165 659.387 697.033 669.197 Q 709.399 681.037 733.046 681.595 Q 757.262 679.441 772.404 668.214 L 782.145 683.662 C 769.349 693.47 753.504 698.275 737.67 700.192 L 737.67 700.192 L 737.572 719.969 L 720.943 719.871 L 720.845 700.094 Q 690.733 698.03 675.681 680.907 Q 666.014 670.305 661.709 654.34 Q 659.299 646.813 660.135 636.038 Q 662.815 610.971 677.944 598.353 Q 693.246 583.25 720.943 580.543 L 721.042 561.356 Z " fill="rgb(121,98,23)"/></g></g></svg>