<?xml version="1.0" standalone="no"?><!-- Generator: Gravit.io --><svg xmlns="http://www.w3.org/2000/svg" xmlns:xlink="http://www.w3.org/1999/xlink" style="isolation:isolate" viewBox="0 0 1000 1000" width="1000" height="1000"><defs><clipPath id="_clipPath_EDuLEQldfnNtUCZMwsb7bWl920IKaieh"><rect width="1000" height="1000"/></clipPath></defs><g clip-path="url(#_clipPath_EDuLEQldfnNtUCZMwsb7bWl920IKaieh)"><rect width="1000" height="1000" style="fill:rgb(0,0,0)" fill-opacity="0"/><g><circle vector-effect="non-scaling-stroke" cx="499.7340035420545" cy="500" r="475" fill="rgb(0,134,75)"/><g style="opacity:0.4;"><g opacity="0.4"><path d=" M 241.321 891 C 240.626 880.701 242.492 871.278 251.401 864.805 C 254.579 862.426 253.787 860.344 252.038 857.729 C 246.43 848.965 242.364 839.305 240.017 829.168 C 233.889 805.442 240.745 784.465 252.856 764.463 Q 258.757 754.707 264.861 745.073 C 266.613 742.295 266.521 740.495 263.633 738.092 C 256.412 732.067 257.904 721.546 266.598 718.934 C 271.341 717.505 272.906 714.948 274.603 710.86 C 280.662 696.261 287.254 681.869 293.615 667.437 C 309.204 631.912 318.427 594.704 322.877 556.271 C 324.61 541.329 325.849 526.342 327.319 511.378 C 327.905 505.435 326.042 503.235 320.187 503.186 C 315.366 503.143 310.548 503.181 305.744 503.17 C 296.662 503.175 289.738 498.351 287.165 490.196 C 284.846 482.999 288.338 472.852 294.564 468.082 C 298.818 464.633 304.29 463.06 309.725 463.723 C 313.416 464.158 314.514 462.587 314.674 458.99 Q 315.997 429.229 317.796 399.481 C 318.058 395.175 315.433 392.4 313.416 389.271 C 297.743 365.077 280.282 342.024 266.27 316.792 C 253.022 292.939 265.711 264.471 291.487 258.354 C 299.601 256.374 307.831 257.176 316.034 257.323 C 320.596 257.426 321.783 256.032 321.726 251.542 C 321.566 239.549 325.224 236.1 337.095 236.142 L 402.11 236.082 C 414.193 236.082 417.857 239.403 417.606 251.365 C 417.506 256.402 419.282 257.328 423.805 257.285 C 434.391 257.168 445.067 256.08 455.256 260.586 C 475.955 269.782 484.462 295.113 473.723 316.155 C 466.589 330.128 456.793 342.392 448.361 355.534 C 440.791 367.327 432.783 378.844 424.876 390.423 C 423.226 392.696 422.41 395.469 422.567 398.274 C 423.516 418.513 424.466 438.769 425.12 459.021 C 425.299 463.275 427.094 463.856 430.683 463.836 C 442.159 463.846 450.333 471.092 452.779 482.482 C 454.986 492.864 445.526 504.951 435.458 503.341 C 430.508 502.566 425.405 503.632 420.449 503.119 C 415.493 502.606 413.972 505.031 413.454 509.086 C 413.094 510.852 412.917 512.65 412.925 514.452 C 416.401 558.16 422.609 601.326 438.992 642.408 C 447.677 664.175 457.746 685.31 467.686 706.499 C 468.428 707.906 469.039 709.379 469.51 710.898 C 470.589 715.098 472.265 717.93 477.33 718.684 C 482.394 719.438 484.589 724.068 485.298 728.841 C 486.099 732.771 484.104 736.738 480.471 738.438 C 474.941 740.654 476.512 743.309 478.671 746.71 C 487.812 760.592 494.806 775.773 499.417 791.741 C 505.364 813.098 502.937 833.364 491.459 852.437 C 487.016 859.821 487.225 862.451 492.905 868.885 C 498.585 875.318 498.861 883.045 499.092 890.888 L 241.321 891 Z " fill="rgb(63,11,137)"/></g><g opacity="0.4"><path d=" M 380.75 131.154 C 384.55 134.348 390.004 134.43 393.853 138.165 C 388.939 143.472 383.452 148.369 380.324 155.15 C 379.225 157.291 378.489 159.599 378.145 161.98 C 377.556 167.533 380.193 170.416 385.762 170.039 C 394.574 169.449 400.994 164.077 406.924 158.442 C 410.363 155.167 411.297 156.804 412.444 159.802 C 417.421 172.485 416.826 186.677 410.806 198.899 C 409.528 201.618 408.431 203.322 405.613 199.686 C 401.947 194.884 397.295 190.924 391.969 188.073 C 387.891 185.911 383.321 183.437 379.063 186.729 C 374.28 190.431 376.589 195.443 378.211 199.997 C 380.471 206.352 384.763 211.462 389.087 216.376 C 389.709 217.08 390.921 217.277 392.805 218.129 C 377.031 226.122 363.322 226.138 349.449 219.324 C 345.944 217.604 344.83 216.425 348.581 213.264 C 354.117 208.596 358.801 202.978 360.931 195.82 C 361.946 192.38 362.994 188.449 359.768 185.648 C 356.541 182.848 352.774 184.011 349.4 185.124 C 343.191 187.425 337.59 191.111 333.02 195.902 C 329.581 199.391 328.581 198.129 327.271 194.264 C 323.027 181.983 323.673 168.54 329.073 156.723 C 330.711 152.759 332.201 151.694 335.461 155.691 C 340.571 161.931 346.566 167.271 354.87 169.04 C 361.193 170.383 364.37 167.402 363.65 160.85 C 362.519 150.629 355.804 143.619 349.514 136.461 C 352.905 132.973 358.31 133.792 361.569 130.319 L 380.75 131.154 Z " fill="rgb(63,11,137)"/></g></g><g style="opacity:0.8;"><path d=" M 250.587 824.393 C 252.582 814.265 256.823 805.646 267.103 801.699 C 270.79 800.224 270.563 798.008 269.55 795.029 C 266.402 785.112 264.975 774.729 265.331 764.33 C 265.553 739.826 277.605 721.338 294.479 705.153 Q 302.705 697.257 311.093 689.531 C 313.505 687.3 313.882 685.538 311.714 682.47 C 306.299 674.781 310.464 665.004 319.537 664.732 C 324.489 664.579 326.662 662.514 329.359 659.005 C 338.99 646.471 349.082 634.275 358.961 621.982 C 383.214 591.702 401.753 558.149 415.999 522.177 C 421.54 508.193 426.616 494.037 431.908 479.964 C 434.013 474.375 432.783 471.768 427.14 470.205 C 422.494 468.915 417.83 467.705 413.193 466.451 C 404.419 464.105 398.979 457.654 398.605 449.111 C 398.228 441.559 404.227 432.661 411.475 429.665 C 416.477 427.435 422.169 427.332 427.248 429.379 C 430.7 430.755 432.167 429.521 433.253 426.089 Q 442.234 397.684 451.671 369.415 C 453.038 365.323 451.221 361.963 450.083 358.42 C 441.206 330.993 430.306 304.206 423.303 276.208 C 416.679 249.738 436.304 225.524 462.785 226.288 C 471.134 226.475 478.877 229.379 486.763 231.644 C 491.142 232.925 492.65 231.886 493.756 227.534 C 496.706 215.908 501.133 213.523 512.588 216.637 L 575.403 233.405 C 587.074 236.533 589.754 240.69 586.415 252.179 C 585.015 257.018 586.491 258.372 590.871 259.501 C 601.126 262.128 611.72 263.84 620.396 270.83 C 638.009 285.07 639.67 311.74 623.851 329.285 C 613.344 340.935 600.707 350.246 589.162 360.758 C 578.797 370.19 568.081 379.242 557.447 388.38 C 555.264 390.148 553.759 392.616 553.184 395.366 C 548.863 415.161 544.538 434.972 539.928 454.703 C 539 458.859 540.583 459.885 544.055 460.795 C 555.138 463.774 561.157 472.889 560.572 484.523 C 560.017 495.124 547.751 504.35 538.443 500.189 C 533.862 498.159 528.657 497.869 524.002 496.09 C 519.348 494.312 517.251 496.261 515.701 500.043 C 514.897 501.656 514.261 503.347 513.802 505.09 C 505.847 548.208 500.671 591.51 505.863 635.433 C 508.619 658.705 512.875 681.726 516.992 704.766 C 517.344 706.317 517.553 707.897 517.615 709.487 C 517.569 713.823 518.456 716.992 523.153 719.032 C 527.85 721.071 528.771 726.111 528.22 730.905 C 527.977 734.908 525.023 738.223 521.075 738.925 C 515.16 739.635 515.99 742.606 517.195 746.45 C 522.432 762.224 525.258 778.698 525.579 795.316 C 525.796 817.484 518.206 836.432 502.183 851.884 C 495.98 857.866 495.501 860.461 499.323 868.146 C 503.144 875.83 501.411 883.365 499.604 891 L 250.587 824.393 Z " fill="rgb(63,11,137)"/><path d=" M 580.074 126.525 C 582.918 130.594 588.165 132.084 590.917 136.688 C 584.797 140.542 578.229 143.853 573.452 149.593 C 571.837 151.376 570.528 153.415 569.58 155.626 C 567.573 160.837 569.375 164.304 574.851 165.382 C 583.516 167.093 591.108 163.565 598.294 159.657 C 602.464 157.383 602.942 159.207 603.274 162.399 C 604.799 175.938 600.551 189.493 591.572 199.741 C 589.635 202.036 588.134 203.398 586.353 199.156 C 584.055 193.569 580.586 188.54 576.18 184.408 C 572.8 181.264 569.026 177.692 564.061 179.77 C 558.483 182.107 559.416 187.546 559.804 192.364 C 560.343 199.088 563.165 205.135 566.07 211 C 566.489 211.842 567.609 212.345 569.208 213.656 C 551.903 217.294 538.657 213.762 527.02 203.589 C 524.079 201.021 523.308 199.593 527.75 197.511 C 534.305 194.435 540.284 190.22 544.194 183.858 C 546.065 180.798 548.095 177.272 545.703 173.732 C 543.311 170.191 539.371 170.339 535.824 170.542 C 529.232 171.157 522.867 173.268 517.213 176.713 C 512.988 179.193 512.349 177.716 512.084 173.643 C 511.163 160.682 515.266 147.864 523.541 137.847 C 526.149 134.442 527.864 133.8 529.978 138.504 C 533.299 145.854 537.708 152.563 545.271 156.421 C 551.03 159.355 554.871 157.298 555.871 150.783 C 557.425 140.618 552.752 132.108 548.529 123.567 C 552.707 121.074 557.716 123.264 561.764 120.754 L 580.074 126.525 Z " fill="rgb(63,11,137)"/></g><g><path d=" M 275.734 762.212 C 280.281 752.945 286.609 745.718 297.561 744.567 C 301.503 744.095 301.858 741.896 301.65 738.757 C 301.176 728.363 302.485 717.964 305.521 708.012 C 312.077 684.4 328.503 669.662 348.991 658.395 Q 358.981 652.897 369.083 647.605 C 371.99 646.075 372.81 644.471 371.51 640.946 C 368.27 632.118 374.823 623.752 383.657 625.837 C 388.48 626.971 391.114 625.539 394.627 622.847 C 407.174 613.233 420.079 604.065 432.803 594.748 C 464.066 571.777 490.658 544.165 513.729 513.106 C 522.7 501.032 531.267 488.673 540.021 476.448 C 543.5 471.595 542.987 468.758 537.941 465.788 C 533.787 463.34 529.595 460.964 525.441 458.553 C 517.573 454.016 513.989 446.376 515.838 438.028 C 517.429 430.635 525.526 423.593 533.303 422.575 C 538.711 421.716 544.236 423.09 548.612 426.381 C 551.591 428.603 553.327 427.792 555.264 424.757 Q 571.291 399.645 587.723 374.781 C 590.102 371.183 589.217 367.467 589.034 363.75 C 587.558 334.96 583.963 306.265 584.445 277.408 C 584.898 250.126 610.121 231.816 635.502 239.408 C 643.519 241.749 650.246 246.559 657.276 250.788 C 661.175 253.158 662.901 252.545 665.095 248.628 C 670.954 238.161 675.846 237.004 686.106 242.975 L 742.441 275.431 C 752.904 281.472 754.417 286.181 748.218 296.414 C 745.613 300.726 746.689 302.416 750.628 304.641 C 759.853 309.832 769.643 314.228 776.214 323.225 C 789.542 341.538 784.243 367.73 764.422 380.583 C 751.258 389.116 736.642 394.839 722.769 402.005 C 710.317 408.433 697.623 414.403 684.986 420.477 C 682.42 421.621 680.327 423.614 679.06 426.122 C 669.763 444.124 660.457 462.141 650.898 480.006 C 648.926 483.781 650.19 485.181 653.308 486.958 C 663.242 492.704 666.697 503.067 663.121 514.154 C 659.841 524.249 645.605 529.986 637.691 523.558 C 633.792 520.411 628.839 518.784 624.803 515.861 C 620.768 512.939 618.238 514.278 615.762 517.531 C 614.568 518.881 613.516 520.349 612.621 521.914 C 593.778 561.504 577.571 601.991 571.218 645.761 C 567.856 668.954 566.009 692.291 564.022 715.612 C 563.961 717.201 563.754 718.782 563.403 720.333 C 562.236 724.51 562.272 727.801 566.281 730.986 C 570.29 734.172 569.876 739.278 568.103 743.766 C 566.832 747.57 563.121 750.008 559.125 749.664 C 553.228 748.818 553.261 751.903 553.43 755.928 C 554.406 772.52 552.872 789.164 548.881 805.299 C 543.353 826.768 531.118 843.106 511.642 853.885 C 504.101 858.057 502.967 860.44 504.669 868.852 C 506.372 877.263 502.748 884.092 499.026 891 L 275.734 762.212 Z " fill="rgb(237,237,237)"/><path d=" M 774.671 172.881 C 776.365 177.547 781.047 180.345 782.514 185.504 C 775.605 187.643 768.404 189.14 762.304 193.449 C 760.282 194.753 758.491 196.384 757.003 198.274 C 753.716 202.788 754.558 206.603 759.569 209.062 C 767.496 212.957 775.742 211.515 783.694 209.6 C 788.311 208.483 788.301 210.368 787.795 213.537 C 785.764 227.009 778.153 239.003 766.828 246.577 C 764.362 248.293 762.56 249.22 761.938 244.662 C 761.164 238.671 759.115 232.915 755.929 227.783 C 753.478 223.871 750.757 219.445 745.422 220.166 C 739.43 220.981 738.924 226.476 738.051 231.23 C 736.831 237.864 737.992 244.436 739.28 250.853 C 739.467 251.774 740.419 252.551 741.624 254.23 C 723.967 253.266 712.086 246.425 703.479 233.588 C 701.303 230.346 700.928 228.767 705.757 227.905 C 712.886 226.63 719.752 224.107 725.174 218.973 C 727.774 216.502 730.647 213.622 729.253 209.583 C 727.859 205.544 724.015 204.667 720.536 203.945 C 714.009 202.833 707.315 203.224 700.962 205.089 C 696.239 206.39 696.005 204.799 696.802 200.796 C 699.268 188.039 706.548 176.719 717.134 169.185 C 720.534 166.571 722.357 166.394 723.182 171.485 C 724.487 179.445 727.009 187.067 733.316 192.751 C 738.12 197.075 742.362 196.082 745.014 190.048 C 749.146 180.631 746.835 171.203 744.967 161.859 C 749.648 160.533 753.919 163.945 758.478 162.567 L 774.671 172.881 Z " fill="rgb(237,237,237)"/></g></g><g><g><path d=" M 778.351 630 Q 876.878 630.532 919.392 687.077 Q 961.29 727.728 959.959 811.608 Q 949.34 885.425 902.882 923.403 Q 882.362 942.034 853.825 952.649 L 852.409 952.177 L 851.938 953.592 Q 822.867 966.503 778.351 963.97 Q 704.534 953.351 666.556 906.893 Q 624.26 866.641 625.989 782.362 Q 636.608 708.545 683.066 670.567 Q 718.226 637.801 778.351 630 Z " fill="rgb(247,207,0)"/><path d=" M 798.163 655.472 Q 865.402 662.292 899.58 702.171 Q 934.728 737.308 935.43 806.891 Q 928.138 866.11 893.448 897.931 L 892.033 898.402 L 891.561 899.817 C 865.277 928.718 825.498 938.318 787.785 939.441 L 787.785 939.441 L 784.955 938.498 L 783.068 938.498 C 765.754 936.823 748.481 933.184 732.438 926.331 C 685.939 906.469 659.401 860.099 652.405 811.608 L 652.405 811.608 L 653.348 809.721 C 651.157 808.406 651.862 805.108 652.405 803.117 L 652.405 803.117 L 652.405 783.305 C 656.57 751.475 668.307 719.956 692.5 697.926 L 692.5 697.926 L 693.915 697.454 L 694.387 696.039 L 695.802 695.568 L 699.104 691.322 C 720.172 671.286 748.111 660.818 776.464 656.416 L 776.464 656.416 L 778.351 656.416 L 792.502 656.416 C 794.24 656.873 797.08 657.422 798.163 655.472 L 798.163 655.472 Z " fill="rgb(236,193,47)"/><path d=" M 795.333 668.68 L 795.333 670.567 L 797.219 669.624 L 799.106 670.567 C 801.071 667.479 807.022 669.601 809.805 670.01 C 823.684 672.047 837.329 675.917 849.107 683.775 L 849.107 683.775 L 850.994 683.775 C 872.094 693.874 888.531 710.293 898.637 731.417 L 898.637 731.417 L 897.693 731.417 L 896.278 728.115 L 894.863 727.644 L 894.391 726.229 L 867.504 705.945 L 867.032 704.53 C 861.196 703.467 855.613 700.831 851.938 696.039 L 851.938 696.039 L 850.051 696.039 C 832.979 687.81 813.778 686.141 795.09 686.435 C 783.953 686.61 772.55 688.774 762.313 693.209 L 762.313 693.209 L 760.426 692.266 C 757.262 696.403 752.255 698.31 747.218 698.869 L 747.218 698.869 L 745.803 698.398 L 745.331 699.813 L 723.161 713.492 L 720.803 716.794 L 708.066 728.587 L 707.595 730.002 L 706.18 730.474 C 697.271 740.868 690.579 753.014 685.896 765.852 L 685.896 765.852 L 684.481 766.324 L 685.424 768.211 Q 675.749 788.724 677.877 821.042 Q 680.236 822.457 678.821 827.646 Q 676.462 829.061 679.764 830.476 Q 680.817 844.989 686.368 855.005 L 685.896 856.42 L 687.311 856.892 L 692.972 870.1 L 689.67 870.572 L 683.538 862.552 L 684.009 861.137 L 681.651 859.722 L 671.273 836.137 L 672.217 834.25 L 670.33 833.307 C 661.733 808.829 662.151 778.577 671.745 754.531 L 671.745 754.531 L 673.16 754.059 L 673.16 752.173 Q 684.232 720.319 707.595 700.756 Q 734.332 672.303 786.842 669.624 L 788.729 669.624 C 790.719 670.166 794.018 670.872 795.333 668.68 L 795.333 668.68 Z  M 787.785 705.473 L 788.257 720.096 L 787.314 720.096 L 787.785 705.473 Z  M 814.201 724.342 L 823.163 729.531 L 821.748 729.059 C 819.515 728.715 813.556 727.887 814.201 724.342 L 814.201 724.342 Z  M 765.143 734.719 L 763.728 737.078 L 761.37 741.323 L 760.898 739.908 L 765.143 734.719 Z  M 828.352 734.719 L 830.711 736.134 L 833.541 740.852 L 832.598 740.852 L 828.352 734.719 Z  M 780.238 752.644 L 779.766 754.059 L 778.823 761.607 L 779.766 763.494 L 778.823 763.494 L 777.879 757.833 L 780.238 752.644 Z  M 804.767 781.89 L 810.899 784.249 L 809.484 784.72 C 808.063 784.587 804.088 784.231 804.767 781.89 L 804.767 781.89 Z  M 774.577 791.324 L 779.766 794.626 L 777.408 796.042 L 777.408 794.155 L 774.577 791.324 Z  M 823.635 792.268 L 826.937 794.626 L 827.409 796.042 L 829.767 797.457 L 830.239 798.872 L 832.598 800.287 L 833.541 802.174 L 828.824 798.4 L 828.352 796.985 L 823.635 792.268 Z  M 838.73 813.966 L 840.145 821.042 L 839.202 821.042 L 838.73 813.966 Z  M 839.673 823.401 L 840.145 833.307 L 838.73 838.495 L 838.258 834.25 C 841.475 831.823 840.513 826.718 839.673 823.401 L 839.673 823.401 Z  M 748.162 836.608 L 753.351 848.401 L 752.407 848.401 L 748.162 836.608 Z  M 779.295 844.156 L 784.483 847.458 L 783.068 846.986 C 781.756 846.752 778.681 846.151 779.295 844.156 L 779.295 844.156 Z  M 834.013 848.873 L 832.598 851.231 L 829.296 855.477 L 831.654 852.175 L 834.013 848.873 Z  M 759.483 856.42 L 760.426 858.307 L 765.615 862.552 L 762.313 860.194 L 759.011 857.835 L 759.483 856.42 Z  M 828.352 856.42 L 824.579 861.137 L 825.994 858.779 L 826.465 857.364 L 828.352 856.42 Z  M 769.86 864.911 L 777.879 868.213 L 775.521 868.685 C 773.73 868.394 769.228 867.677 769.86 864.911 L 769.86 864.911 Z  M 786.842 870.572 L 788.257 871.043 L 787.785 887.553 L 786.37 887.081 C 790.697 883.666 788.621 876.257 787.314 871.987 L 787.314 871.987 L 786.842 870.572 Z " fill-rule="evenodd" fill="rgb(247,207,0)"/></g><path d=" M 787.972 703.744 L 808.821 703.867 L 808.945 727.924 C 828.812 730.347 848.691 736.476 864.583 749.019 L 864.583 749.019 L 851.136 768.388 Q 842.375 762.098 831.644 757.778 Q 818.238 750.829 797.595 751.117 Q 769.898 754.015 755.28 769.992 Q 743.632 781.783 742.944 804.534 Q 745.498 826.653 757.871 838.953 Q 773.375 853.797 803.023 854.497 Q 833.384 851.797 852.369 837.72 L 864.583 857.088 C 848.539 869.386 828.673 875.41 808.821 877.814 L 808.821 877.814 L 808.698 902.61 L 787.849 902.487 L 787.726 877.69 Q 749.972 875.103 731.1 853.634 Q 718.979 840.342 713.582 820.325 Q 710.56 810.887 711.609 797.379 Q 714.968 765.95 733.938 750.13 Q 753.123 731.194 787.849 727.8 L 787.972 703.744 Z " fill="rgb(121,98,23)"/></g></g></svg>